  <svg width="11px" height="15px" viewBox="0 0 11 15" version="1.1" xmlns="http://www.w3.org/2000/svg" xmlns:xlink="http://www.w3.org/1999/xlink">
   <g stroke="none" stroke-width="1" fill="none" fill-rule="evenodd">
    <g transform="translate(-215.000000, -2969.000000)" stroke="#131415">
     <g transform="translate(12.000000, 2959.000000)">
      <path d="M204.513575,0.5 C205.756216,0.5 206.881216,1.00367966 207.695556,1.81801948 C208.509895,2.63235931 209.013575,3.75735931 209.013575,5 L209.013575,5 L209.013575,11.8055877 L203.836586,16.9754263 L209.013575,23.1737239 L209.013575,29 C209.013575,30.2426407 208.509895,31.3676407 207.695556,32.1819805 C206.881216,32.9963203 205.756216,33.5 204.513575,33.5 L204.513575,33.5 L9.5135751,33.5 C8.27093442,33.5 7.14593442,32.9963203 6.33159459,32.1819805 C5.51725476,31.3676407 5.0135751,30.2426407 5.0135751,29 L5.0135751,29 L5.0135751,23.1936385 L10.1877265,16.9712947 L5.0135751,11.7283015 L5.0135751,5 C5.0135751,3.75735931 5.51725476,2.63235931 6.33159459,1.81801948 C7.14593442,1.00367966 8.27093442,0.5 9.5135751,0.5 L9.5135751,0.5 Z">
      </path>
      <path d="M210.026152,15.2905999 L215.648371,20.1096451 L205.207107,20.1096451 L210.026152,15.2905999 Z" fill="#C1D3FF" transform="translate(210.500000, 17.609645) scale(-1, 1) rotate(-270.000000) translate(-210.500000, -17.609645) ">
      </path>
     </g>
    </g>
   </g>
  </svg>
